<?xml version="1.0" encoding="UTF-8" standalone="no"?>
<!-- Generator: Adobe Illustrator 16.0.0, SVG Export Plug-In . SVG Version: 6.00 Build 0)  -->

<svg
   version="1.1"
   id="Layer_1"
   x="0px"
   y="0px"
   width="452.738px"
   height="512px"
   viewBox="-2.819 0 452.738 512"
   enable-background="new -2.819 0 452.738 512"
   xml:space="preserve"
   sodipodi:docname="download.svg"
   inkscape:export-filename="0.png"
   inkscape:export-xdpi="96"
   inkscape:export-ydpi="96"
   inkscape:version="1.3 (0e150ed6c4, 2023-07-21)"
   xmlns:inkscape="http://www.inkscape.org/namespaces/inkscape"
   xmlns:sodipodi="http://sodipodi.sourceforge.net/DTD/sodipodi-0.dtd"
   xmlns="http://www.w3.org/2000/svg"
   xmlns:svg="http://www.w3.org/2000/svg"><defs
   id="defs1" /><sodipodi:namedview
   id="namedview1"
   pagecolor="#ffffff"
   bordercolor="#000000"
   borderopacity="0.25"
   inkscape:showpageshadow="2"
   inkscape:pageopacity="0.0"
   inkscape:pagecheckerboard="0"
   inkscape:deskcolor="#d1d1d1"
   inkscape:export-bgcolor="#00000000"
   inkscape:zoom="0.9609375"
   inkscape:cx="226.34146"
   inkscape:cy="256"
   inkscape:window-width="1128"
   inkscape:window-height="730"
   inkscape:window-x="-6"
   inkscape:window-y="-6"
   inkscape:window-maximized="1"
   inkscape:current-layer="Layer_1" />&#10;<g
   id="g1"
   style="fill:#ffffff">&#10;	<polygon
   points="236.365,377.627 236.365,254.765 219.28,254.765 219.28,377.627 182.942,341.289 170.863,353.368 227.822,410.328    284.773,353.368 272.693,341.289  "
   id="polygon1"
   style="fill:#ffffff" />&#10;	<path
   d="M369.862,212.304c-13.631-63.6-70.105-111.299-137.761-111.299c-54.866,0-102.308,31.416-125.589,77.18   c-2.27-0.15-4.529-0.341-6.832-0.341c-56.609,0-102.499,45.889-102.499,102.506c0,56.441,45.614,102.207,101.981,102.49v0.025   h51.779v-17.086h-47.875l-3.821-0.024c-46.857-0.233-84.98-38.547-84.98-85.405c0-47.099,38.314-85.423,85.414-85.423   c1.493,0,2.961,0.117,4.438,0.217l1.268,0.084l11.245,0.75l5.106-10.044c21.289-41.851,63.583-67.845,110.366-67.845   c58.002,0,108.912,41.126,121.059,97.794l2.712,12.663l12.931,0.809c35.903,2.235,64.033,32.142,64.033,68.086   c0,37.565-30.458,68.139-67.973,68.338c-0.424-0.024-0.793-0.041-1.167-0.057l-17.451,0.057h-41.543v17.086h58.627v-0.059   c0.393,0.008,0.776,0.059,1.169,0.059c47.164,0,85.421-38.24,85.421-85.424C449.92,252.079,414.517,215.082,369.862,212.304z"
   id="path1"
   style="fill:#ffffff" />&#10;</g>&#10;</svg>
