<?xml version="1.0" encoding="UTF-8" standalone="no"?>
<!-- Generator: Adobe Illustrator 16.0.0, SVG Export Plug-In . SVG Version: 6.00 Build 0)  -->

<svg
   version="1.1"
   id="Layer_1"
   x="0px"
   y="0px"
   width="452.738px"
   height="512px"
   viewBox="-2.819 0 452.738 512"
   enable-background="new -2.819 0 452.738 512"
   xml:space="preserve"
   sodipodi:docname="drizzle.svg"
   inkscape:export-filename="12.png"
   inkscape:export-xdpi="96"
   inkscape:export-ydpi="96"
   inkscape:version="1.3 (0e150ed6c4, 2023-07-21)"
   xmlns:inkscape="http://www.inkscape.org/namespaces/inkscape"
   xmlns:sodipodi="http://sodipodi.sourceforge.net/DTD/sodipodi-0.dtd"
   xmlns="http://www.w3.org/2000/svg"
   xmlns:svg="http://www.w3.org/2000/svg"><defs
   id="defs6" /><sodipodi:namedview
   id="namedview6"
   pagecolor="#ffffff"
   bordercolor="#000000"
   borderopacity="0.25"
   inkscape:showpageshadow="2"
   inkscape:pageopacity="0.0"
   inkscape:pagecheckerboard="0"
   inkscape:deskcolor="#d1d1d1"
   inkscape:export-bgcolor="#00000000"
   inkscape:zoom="0.9609375"
   inkscape:cx="226.34146"
   inkscape:cy="256"
   inkscape:window-width="1128"
   inkscape:window-height="730"
   inkscape:window-x="-6"
   inkscape:window-y="-6"
   inkscape:window-maximized="1"
   inkscape:current-layer="g6" />&#10;<g
   id="g6">&#10;	<rect
   x="210.738"
   y="311.266"
   width="17.084"
   height="59.797"
   id="rect1"
   style="fill:#ffffff" />&#10;	<rect
   x="279.076"
   y="277.1"
   width="17.084"
   height="59.795"
   id="rect2"
   style="fill:#ffffff" />&#10;	<rect
   x="142.4"
   y="277.1"
   width="17.084"
   height="59.795"
   id="rect3"
   style="fill:#ffffff" />&#10;	<rect
   x="210.738"
   y="396.689"
   width="17.084"
   height="59.796"
   id="rect4"
   style="fill:#ffffff" />&#10;	<rect
   x="279.076"
   y="362.52"
   width="17.084"
   height="59.797"
   id="rect5"
   style="fill:#ffffff" />&#10;	<rect
   x="142.4"
   y="362.52"
   width="17.084"
   height="59.797"
   id="rect6"
   style="fill:#ffffff" />&#10;	<path
   d="M369.862,166.148c-13.631-63.6-70.105-111.299-137.761-111.299c-54.866,0-102.308,31.416-125.589,77.18   c-2.27-0.15-4.529-0.342-6.832-0.342c-56.609,0-102.499,45.89-102.499,102.507c0,56.445,45.614,102.208,101.981,102.492v0.023   h17.61v-17.084h-13.706l-3.821-0.025c-46.857-0.232-84.98-38.548-84.98-85.406c0-47.099,38.314-85.422,85.414-85.422   c1.493,0,2.961,0.117,4.438,0.216l1.268,0.083l11.245,0.751l5.106-10.044c21.289-41.852,63.583-67.846,110.366-67.846   c58.002,0,108.912,41.126,121.059,97.793l2.712,12.663l12.931,0.81c35.903,2.235,64.033,32.142,64.033,68.088   c0,37.563-30.458,68.138-67.973,68.338c-0.424-0.024-0.793-0.041-1.167-0.06l-17.451,0.06h-24.46v17.084h41.544v-0.06   c0.393,0.011,0.776,0.06,1.169,0.06c47.164,0,85.421-38.237,85.421-85.422C449.92,205.923,414.517,168.926,369.862,166.148z"
   id="path6"
   style="fill:#ffffff" />&#10;</g>&#10;</svg>
