<?xml version="1.0" encoding="UTF-8" standalone="no"?>
<!-- Generator: Adobe Illustrator 16.0.0, SVG Export Plug-In . SVG Version: 6.00 Build 0)  -->

<svg
   version="1.1"
   id="Layer_1"
   x="0px"
   y="0px"
   width="495.452px"
   height="512px"
   viewBox="-24.174 0 495.452 512"
   enable-background="new -24.174 0 495.452 512"
   xml:space="preserve"
   sodipodi:docname="drizzle-alt-sun.svg"
   inkscape:export-filename="14.png"
   inkscape:export-xdpi="96"
   inkscape:export-ydpi="96"
   inkscape:version="1.3 (0e150ed6c4, 2023-07-21)"
   xmlns:inkscape="http://www.inkscape.org/namespaces/inkscape"
   xmlns:sodipodi="http://sodipodi.sourceforge.net/DTD/sodipodi-0.dtd"
   xmlns="http://www.w3.org/2000/svg"
   xmlns:svg="http://www.w3.org/2000/svg"><defs
   id="defs9" /><sodipodi:namedview
   id="namedview9"
   pagecolor="#ffffff"
   bordercolor="#000000"
   borderopacity="0.25"
   inkscape:showpageshadow="2"
   inkscape:pageopacity="0.0"
   inkscape:pagecheckerboard="0"
   inkscape:deskcolor="#d1d1d1"
   inkscape:export-bgcolor="#00000000"
   inkscape:zoom="0.9609375"
   inkscape:cx="248.19512"
   inkscape:cy="256"
   inkscape:window-width="1128"
   inkscape:window-height="730"
   inkscape:window-x="-6"
   inkscape:window-y="-6"
   inkscape:window-maximized="1"
   inkscape:current-layer="Layer_1" />&#10;<g
   id="g9">&#10;	<rect
   x="138.129"
   y="23.416"
   width="17.084"
   height="68.104"
   id="rect1"
   style="fill:#ffffff" />&#10;	<rect
   x="-24.174"
   y="184.985"
   width="68.104"
   height="17.083"
   id="rect2"
   style="fill:#ffffff" />&#10;	&#10;		<rect
   x="15.745"
   y="88.742"
   transform="matrix(-0.7071 -0.7071 0.7071 -0.7071 16.2303 201.2902)"
   width="68.117"
   height="17.084"
   id="rect3"
   style="fill:#ffffff" />&#10;	&#10;		<rect
   x="233.646"
   y="63.268"
   transform="matrix(-0.7071 -0.7071 0.7071 -0.7071 344.6214 337.3818)"
   width="17.081"
   height="68.094"
   id="rect4"
   style="fill:#ffffff" />&#10;	<path
   d="M398.768,243.721c-12.339-57.593-63.49-100.796-124.765-100.796c-18.661,0-36.369,4.012-52.329,11.22   c-14.24-27.353-42.77-46.073-75.737-46.073c-47.174,0-85.422,38.24-85.422,85.414c0,21.014,7.683,40.167,20.271,55.033   c-12.205,15.717-19.537,35.396-19.537,56.834c0,51.11,41.31,92.562,92.363,92.813v0.025h10.144v-17.087H157.6l-3.904-0.022   c-41.552-0.2-75.362-34.179-75.362-75.729c0-41.769,33.977-75.754,75.746-75.754c1.284,0,2.552,0.1,3.82,0.192l1.269,0.083   l11.228,0.725l5.097-10.035c19.003-37.347,56.751-60.555,98.51-60.555c51.781,0,97.229,36.713,108.056,87.292l2.721,12.672   l12.929,0.801c31.676,1.969,56.484,28.354,56.484,60.055c0,33.127-26.854,60.097-59.938,60.279   c-0.359-0.023-0.676-0.041-1.001-0.041l-17.485,0.041h-6.999v17.086h24.085v-0.052c0.357,0.009,0.699,0.052,1.059,0.052   c42.721,0,77.364-34.629,77.364-77.365C471.276,279.743,439.209,246.24,398.768,243.721z M160.269,212.822   c-2.061-0.133-4.104-0.308-6.189-0.308c-23.625,0-45.122,8.901-61.506,23.432c-9.327-11.679-14.975-26.395-14.975-42.461   c0-37.672,30.657-68.329,68.338-68.329c26.402,0,49.201,15.149,60.571,37.113C186.88,174.565,170.821,192.067,160.269,212.822z"
   id="path4"
   style="fill:#ffffff" />&#10;	<rect
   x="257.721"
   y="398.323"
   width="17.084"
   height="34.171"
   id="rect5"
   style="fill:#ffffff" />&#10;	<rect
   x="326.058"
   y="363.971"
   width="17.085"
   height="34.354"
   id="rect6"
   style="fill:#ffffff" />&#10;	<rect
   x="189.382"
   y="363.971"
   width="17.085"
   height="34.354"
   id="rect7"
   style="fill:#ffffff" />&#10;	<path
   d="M334.6,428.397c-7.065,0-12.812,5.729-12.812,12.812c0,7.081,5.747,12.813,12.812,12.813   c7.066,0,12.814-5.732,12.814-12.813C347.414,434.127,341.666,428.397,334.6,428.397z"
   id="path7"
   style="fill:#ffffff" />&#10;	<path
   d="M266.262,462.299c-7.063,0-12.812,5.732-12.812,12.813c0,7.083,5.748,12.812,12.812,12.812   c7.066,0,12.814-5.729,12.814-12.812C279.076,468.031,273.328,462.299,266.262,462.299z"
   id="path8"
   style="fill:#ffffff" />&#10;	<path
   d="M197.924,428.038c-7.066,0-12.813,5.73-12.813,12.813c0,7.081,5.747,12.812,12.813,12.812   c7.065,0,12.813-5.731,12.813-12.812C210.738,433.77,204.99,428.038,197.924,428.038z"
   id="path9"
   style="fill:#ffffff" />&#10;</g>&#10;</svg>
