<?xml version="1.0" encoding="UTF-8" standalone="no"?>
<!-- Generator: Adobe Illustrator 16.0.0, SVG Export Plug-In . SVG Version: 6.00 Build 0)  -->

<svg
   version="1.1"
   id="Layer_1"
   x="0px"
   y="0px"
   width="478.365px"
   height="512px"
   viewBox="-15.632 0 478.365 512"
   enable-background="new -15.632 0 478.365 512"
   xml:space="preserve"
   sodipodi:docname="fog.svg"
   inkscape:export-filename="11.png"
   inkscape:export-xdpi="96"
   inkscape:export-ydpi="96"
   inkscape:version="1.3 (0e150ed6c4, 2023-07-21)"
   xmlns:inkscape="http://www.inkscape.org/namespaces/inkscape"
   xmlns:sodipodi="http://sodipodi.sourceforge.net/DTD/sodipodi-0.dtd"
   xmlns="http://www.w3.org/2000/svg"
   xmlns:svg="http://www.w3.org/2000/svg"><defs
   id="defs4" /><sodipodi:namedview
   id="namedview4"
   pagecolor="#ffffff"
   bordercolor="#000000"
   borderopacity="0.25"
   inkscape:showpageshadow="2"
   inkscape:pageopacity="0.0"
   inkscape:pagecheckerboard="0"
   inkscape:deskcolor="#d1d1d1"
   inkscape:export-bgcolor="#00000000"
   inkscape:zoom="0.9609375"
   inkscape:cx="238.82927"
   inkscape:cy="256"
   inkscape:window-width="1128"
   inkscape:window-height="730"
   inkscape:window-x="-6"
   inkscape:window-y="-6"
   inkscape:window-maximized="1"
   inkscape:current-layer="Layer_1" />&#10;<g
   id="g4">&#10;	<rect
   x="-15.632"
   y="302.65"
   width="478.365"
   height="17.082"
   id="rect1"
   style="fill:#ffffff" />&#10;	<rect
   x="18.537"
   y="353.902"
   width="427.113"
   height="17.086"
   id="rect2"
   style="fill:#ffffff" />&#10;	<rect
   x="69.791"
   y="405.155"
   width="307.521"
   height="17.085"
   id="rect3"
   style="fill:#ffffff" />&#10;	<rect
   x="1.453"
   y="251.396"
   width="444.197"
   height="17.084"
   id="rect4"
   style="fill:#ffffff" />&#10;	<path
   d="M102.883,183.016c1.494,0,2.962,0.117,4.43,0.217l1.277,0.083l11.245,0.751l5.105-10.044   c21.297-41.852,63.583-67.845,110.365-67.845c58.002,0,108.913,41.126,121.051,97.793l2.72,12.664l12.932,0.809   c10.312,0.642,19.944,3.628,28.495,8.325h28.071c-14.332-14.548-33.802-24.025-55.507-25.376   c-13.632-63.6-70.107-111.3-137.762-111.3c-54.866,0-102.307,31.416-125.59,77.181c-2.269-0.15-4.53-0.342-6.833-0.342   c-41.368,0-76.913,24.551-93.113,59.837h19.229C43.789,200.259,71.334,183.016,102.883,183.016z"
   id="path4"
   style="fill:#ffffff" />&#10;</g>&#10;</svg>
