<?xml version="1.0" encoding="UTF-8" standalone="no"?>
<!-- Generator: Adobe Illustrator 16.0.0, SVG Export Plug-In . SVG Version: 6.00 Build 0)  -->

<svg
   version="1.1"
   id="Layer_1"
   x="0px"
   y="0px"
   width="452.738px"
   height="512px"
   viewBox="-2.819 0 452.738 512"
   enable-background="new -2.819 0 452.738 512"
   xml:space="preserve"
   sodipodi:docname="hail.svg"
   inkscape:export-filename="26.png"
   inkscape:export-xdpi="96"
   inkscape:export-ydpi="96"
   inkscape:version="1.3 (0e150ed6c4, 2023-07-21)"
   xmlns:inkscape="http://www.inkscape.org/namespaces/inkscape"
   xmlns:sodipodi="http://sodipodi.sourceforge.net/DTD/sodipodi-0.dtd"
   xmlns="http://www.w3.org/2000/svg"
   xmlns:svg="http://www.w3.org/2000/svg"><defs
   id="defs5" /><sodipodi:namedview
   id="namedview5"
   pagecolor="#ffffff"
   bordercolor="#000000"
   borderopacity="0.25"
   inkscape:showpageshadow="2"
   inkscape:pageopacity="0.0"
   inkscape:pagecheckerboard="0"
   inkscape:deskcolor="#d1d1d1"
   inkscape:export-bgcolor="#00000000"
   inkscape:zoom="0.9609375"
   inkscape:cx="226.34146"
   inkscape:cy="256"
   inkscape:window-width="1128"
   inkscape:window-height="730"
   inkscape:window-x="-6"
   inkscape:window-y="-6"
   inkscape:window-maximized="1"
   inkscape:current-layer="Layer_1" />&#10;<g
   id="g5">&#10;	<path
   d="M369.862,161.952c-13.631-63.6-70.105-111.299-137.761-111.299c-54.866,0-102.308,31.416-125.589,77.18   c-2.27-0.15-4.529-0.342-6.832-0.342c-56.609,0-102.499,45.89-102.499,102.507c0,56.441,45.614,102.207,101.981,102.49v0.025h17.61   V315.43h-13.706l-3.821-0.025c-46.857-0.233-84.98-38.547-84.98-85.406c0-47.1,38.314-85.422,85.414-85.422   c1.493,0,2.961,0.117,4.438,0.216l1.268,0.083l11.245,0.751l5.106-10.044c21.289-41.852,63.583-67.845,110.366-67.845   c58.002,0,108.912,41.126,121.059,97.793l2.712,12.664l12.931,0.809c35.903,2.236,64.033,32.143,64.033,68.088   c0,37.563-30.458,68.138-67.973,68.341c-0.424-0.025-0.793-0.043-1.167-0.06l-17.451,0.06h-24.46v17.082h41.544v-0.058   c0.393,0.008,0.776,0.058,1.169,0.058c47.164,0,85.421-38.24,85.421-85.423C449.92,201.727,414.517,164.73,369.862,161.952z"
   id="path1"
   style="fill:#ffffff" />&#10;	<path
   d="M150.942,383.801c-7.074,0-12.813,5.739-12.813,12.812c0,7.074,5.739,12.812,12.813,12.812   c7.074,0,12.813-5.739,12.813-12.812S158.016,383.801,150.942,383.801z"
   id="path2"
   style="fill:#ffffff" />&#10;	<path
   d="M219.28,435.055c-7.074,0-12.813,5.739-12.813,12.812c0,7.074,5.739,12.812,12.813,12.812   c7.076,0,12.813-5.738,12.813-12.812C232.094,440.794,226.355,435.055,219.28,435.055z"
   id="path3"
   style="fill:#ffffff" />&#10;	<path
   d="M287.618,400.885c-7.075,0-12.813,5.739-12.813,12.813c0,7.075,5.738,12.813,12.813,12.813   c7.073,0,12.813-5.738,12.813-12.813C300.434,406.624,294.691,400.885,287.618,400.885z"
   id="path4"
   style="fill:#ffffff" />&#10;	<rect
   x="142.4"
   y="255.875"
   width="17.084"
   height="102.297"
   id="rect4"
   style="fill:#ffffff" />&#10;	<polygon
   points="227.822,409.127 227.822,392.551 227.822,290.044 210.738,290.044 210.738,392.551 210.738,409.127    210.738,409.427 227.822,409.427  "
   id="polygon4"
   style="fill:#ffffff" />&#10;	<polygon
   points="296.16,373.355 296.16,358.384 296.16,255.875 279.076,255.875 279.076,358.384 279.076,373.355 279.076,375.26    296.16,375.26  "
   id="polygon5"
   style="fill:#ffffff" />&#10;</g>&#10;</svg>
