<?xml version="1.0" encoding="UTF-8" standalone="no"?>
<!-- Generator: Adobe Illustrator 16.0.0, SVG Export Plug-In . SVG Version: 6.00 Build 0)  -->

<svg
   version="1.1"
   id="Layer_1"
   x="0px"
   y="0px"
   width="290.119px"
   height="512px"
   viewBox="78.492 0 290.119 512"
   enable-background="new 78.492 0 290.119 512"
   xml:space="preserve"
   sodipodi:docname="moon.svg"
   inkscape:export-filename="33.png"
   inkscape:export-xdpi="96"
   inkscape:export-ydpi="96"
   inkscape:version="1.3 (0e150ed6c4, 2023-07-21)"
   xmlns:inkscape="http://www.inkscape.org/namespaces/inkscape"
   xmlns:sodipodi="http://sodipodi.sourceforge.net/DTD/sodipodi-0.dtd"
   xmlns="http://www.w3.org/2000/svg"
   xmlns:svg="http://www.w3.org/2000/svg"><defs
   id="defs1" /><sodipodi:namedview
   id="namedview1"
   pagecolor="#ffffff"
   bordercolor="#000000"
   borderopacity="0.25"
   inkscape:showpageshadow="2"
   inkscape:pageopacity="0.0"
   inkscape:pagecheckerboard="0"
   inkscape:deskcolor="#d1d1d1"
   inkscape:export-bgcolor="#00000000"
   inkscape:zoom="0.9609375"
   inkscape:cx="145.17073"
   inkscape:cy="256"
   inkscape:window-width="1128"
   inkscape:window-height="730"
   inkscape:window-x="-6"
   inkscape:window-y="-6"
   inkscape:window-maximized="1"
   inkscape:current-layer="Layer_1" />&#10;<path
   d="M247.093,129.727c59.37,11.145,104.435,63.375,104.435,125.932c0,70.666-57.485,128.149-128.134,128.149  c-58.002,0-107.044-38.355-122.719-91.636c11.946,3.937,24.492,5.963,37.297,5.963c65.944,0,119.591-53.656,119.591-119.6  C257.562,161.585,253.941,144.976,247.093,129.727 M223.393,110.448c-2.887,0-5.706,0.267-8.542,0.434  c15.899,18.052,25.627,41.693,25.627,67.654c0,56.609-45.891,102.516-102.507,102.516c-22.198,0-42.694-7.133-59.479-19.129  c3.304,77.281,66.812,138.97,144.901,138.97c80.208,0,145.218-65.024,145.218-145.233  C368.61,175.45,303.602,110.448,223.393,110.448L223.393,110.448z"
   id="path1"
   style="fill:#ffffff" />&#10;</svg>
