<?xml version="1.0" encoding="UTF-8" standalone="no"?>
<!-- Generator: Adobe Illustrator 16.0.0, SVG Export Plug-In . SVG Version: 6.00 Build 0)  -->

<svg
   version="1.1"
   id="Layer_1"
   x="0px"
   y="0px"
   width="452.738px"
   height="512px"
   viewBox="-2.819 0 452.738 512"
   enable-background="new -2.819 0 452.738 512"
   xml:space="preserve"
   sodipodi:docname="rain.svg"
   inkscape:version="1.3 (0e150ed6c4, 2023-07-21)"
   inkscape:export-filename="18.png"
   inkscape:export-xdpi="96"
   inkscape:export-ydpi="96"
   xmlns:inkscape="http://www.inkscape.org/namespaces/inkscape"
   xmlns:sodipodi="http://sodipodi.sourceforge.net/DTD/sodipodi-0.dtd"
   xmlns="http://www.w3.org/2000/svg"
   xmlns:svg="http://www.w3.org/2000/svg"><defs
   id="defs3" /><sodipodi:namedview
   id="namedview3"
   pagecolor="#ffffff"
   bordercolor="#000000"
   borderopacity="0.25"
   inkscape:showpageshadow="2"
   inkscape:pageopacity="0.0"
   inkscape:pagecheckerboard="0"
   inkscape:deskcolor="#d1d1d1"
   inkscape:export-bgcolor="#00000000"
   inkscape:zoom="0.9609375"
   inkscape:cx="226.34146"
   inkscape:cy="256"
   inkscape:window-width="1128"
   inkscape:window-height="730"
   inkscape:window-x="-6"
   inkscape:window-y="-6"
   inkscape:window-maximized="1"
   inkscape:current-layer="Layer_1" />&#10;<g
   id="g3">&#10;	<path
   d="M369.862,161.853c-13.631-63.6-70.105-111.3-137.761-111.3c-54.866,0-102.308,31.416-125.589,77.181   c-2.27-0.151-4.529-0.342-6.832-0.342c-56.609,0-102.499,45.89-102.499,102.507c0,56.443,45.614,102.207,101.981,102.492v0.024   h17.61v-17.086h-13.706l-3.821-0.024c-46.857-0.234-84.98-38.55-84.98-85.406c0-47.1,38.314-85.423,85.414-85.423   c1.493,0,2.961,0.117,4.438,0.218l1.268,0.083l11.245,0.751l5.106-10.044c21.289-41.852,63.583-67.846,110.366-67.846   c58.002,0,108.912,41.126,121.059,97.794l2.712,12.664l12.931,0.809c35.903,2.235,64.033,32.142,64.033,68.087   c0,37.564-30.458,68.137-67.973,68.338c-0.424-0.025-0.793-0.041-1.167-0.061l-17.451,0.061h-24.46v17.086h41.544v-0.059   c0.393,0.008,0.776,0.059,1.169,0.059c47.164,0,85.421-38.24,85.421-85.424C449.92,201.626,414.517,164.629,369.862,161.853z"
   id="path1"
   style="fill:#ffffff" />&#10;	<polygon
   points="210.738,392.452 210.738,409.028 210.738,460.79 227.822,460.79 227.822,409.028 227.822,392.452 227.822,289.943    210.738,289.943  "
   id="polygon1"
   style="fill:#ffffff" />&#10;	<polygon
   points="279.076,358.281 279.076,373.257 279.076,426.619 296.16,426.619 296.16,373.257 296.16,358.281 296.16,255.774    279.076,255.774  "
   id="polygon2"
   style="fill:#ffffff" />&#10;	<polygon
   points="142.4,358.281 142.4,375.925 142.4,426.619 159.484,426.619 159.484,375.925 159.484,358.281 159.484,255.774    142.4,255.774  "
   id="polygon3"
   style="fill:#ffffff" />&#10;</g>&#10;</svg>
