<?xml version="1.0" encoding="UTF-8" standalone="no"?>
<!-- Generator: Adobe Illustrator 16.0.0, SVG Export Plug-In . SVG Version: 6.00 Build 0)  -->

<svg
   version="1.1"
   id="Layer_1"
   x="0px"
   y="0px"
   width="452.738px"
   height="512px"
   viewBox="-2.819 0 452.738 512"
   enable-background="new -2.819 0 452.738 512"
   xml:space="preserve"
   sodipodi:docname="snow-alt.svg"
   inkscape:export-filename="22.png"
   inkscape:export-xdpi="96"
   inkscape:export-ydpi="96"
   inkscape:version="1.3 (0e150ed6c4, 2023-07-21)"
   xmlns:inkscape="http://www.inkscape.org/namespaces/inkscape"
   xmlns:sodipodi="http://sodipodi.sourceforge.net/DTD/sodipodi-0.dtd"
   xmlns="http://www.w3.org/2000/svg"
   xmlns:svg="http://www.w3.org/2000/svg"><defs
   id="defs3" /><sodipodi:namedview
   id="namedview3"
   pagecolor="#ffffff"
   bordercolor="#000000"
   borderopacity="0.25"
   inkscape:showpageshadow="2"
   inkscape:pageopacity="0.0"
   inkscape:pagecheckerboard="0"
   inkscape:deskcolor="#d1d1d1"
   inkscape:export-bgcolor="#00000000"
   inkscape:zoom="0.9609375"
   inkscape:cx="226.34146"
   inkscape:cy="256"
   inkscape:window-width="1128"
   inkscape:window-height="730"
   inkscape:window-x="-6"
   inkscape:window-y="-6"
   inkscape:window-maximized="1"
   inkscape:current-layer="Layer_1" />&#10;<g
   id="g3">&#10;	<path
   d="M369.862,183.308c-13.631-63.6-70.105-111.299-137.761-111.299c-54.866,0-102.308,31.416-125.589,77.18   c-2.27-0.15-4.529-0.342-6.832-0.342c-56.609,0-102.499,45.89-102.499,102.507c0,56.442,45.614,102.207,101.981,102.49v0.025h17.61   v-17.085h-13.706l-3.821-0.025c-46.857-0.233-84.98-38.548-84.98-85.405c0-47.099,38.314-85.422,85.414-85.422   c1.493,0,2.961,0.117,4.438,0.217l1.268,0.084l11.245,0.75l5.106-10.043c21.289-41.852,63.583-67.846,110.366-67.846   c58.002,0,108.912,41.126,121.059,97.793l2.712,12.663l12.931,0.81c35.903,2.236,64.033,32.142,64.033,68.088   c0,37.563-30.458,68.137-67.973,68.337c-0.424-0.025-0.793-0.041-1.167-0.059l-17.451,0.059h-7.375v17.085h24.459v-0.06   c0.393,0.01,0.776,0.06,1.169,0.06c47.164,0,85.421-38.24,85.421-85.422C449.92,223.083,414.517,186.085,369.862,183.308z"
   id="path1"
   style="fill:#ffffff" />&#10;	<polygon
   points="185.111,345.51 185.111,323.045 203.673,333.489 209.528,323.062 188.431,311.191 209.528,299.32 203.673,288.893    185.111,299.338 185.111,277.172 168.026,277.172 168.026,299.713 148.798,288.893 142.942,299.32 164.04,311.191 142.942,323.062    148.798,333.489 168.026,322.671 168.026,345.51  "
   id="polygon1"
   style="fill:#ffffff" />&#10;	<polygon
   points="229.207,382.708 210.646,393.15 210.646,370.988 193.562,370.988 193.562,393.527 174.333,382.708    168.477,393.136 189.574,405.006 168.477,416.876 174.333,427.304 193.562,416.485 193.562,439.326 210.646,439.326    210.646,416.86 229.207,427.304 235.062,416.876 213.967,405.006 235.062,393.136  "
   id="polygon2"
   style="fill:#ffffff" />&#10;	<polygon
   points="306.222,323.062 287.66,333.507 287.66,311.342 270.575,311.342 270.575,333.881 251.348,323.062 245.49,333.489    266.587,345.359 245.49,357.23 251.348,367.659 270.575,356.839 270.575,379.68 287.66,379.68 287.66,357.215 306.222,367.659    312.076,357.23 290.98,345.359 312.076,333.489  "
   id="polygon3"
   style="fill:#ffffff" />&#10;</g>&#10;</svg>
