<?xml version="1.0" encoding="UTF-8" standalone="no"?>
<!-- Generator: Adobe Illustrator 16.0.0, SVG Export Plug-In . SVG Version: 6.00 Build 0)  -->

<svg
   version="1.1"
   id="Layer_1"
   x="0px"
   y="0px"
   width="495.452px"
   height="512px"
   viewBox="-24.174 0 495.452 512"
   enable-background="new -24.174 0 495.452 512"
   xml:space="preserve"
   sodipodi:docname="snow-sun.svg"
   inkscape:export-filename="20.png"
   inkscape:export-xdpi="96"
   inkscape:export-ydpi="96"
   inkscape:version="1.3 (0e150ed6c4, 2023-07-21)"
   xmlns:inkscape="http://www.inkscape.org/namespaces/inkscape"
   xmlns:sodipodi="http://sodipodi.sourceforge.net/DTD/sodipodi-0.dtd"
   xmlns="http://www.w3.org/2000/svg"
   xmlns:svg="http://www.w3.org/2000/svg"><defs
   id="defs14" /><sodipodi:namedview
   id="namedview14"
   pagecolor="#ffffff"
   bordercolor="#000000"
   borderopacity="0.25"
   inkscape:showpageshadow="2"
   inkscape:pageopacity="0.0"
   inkscape:pagecheckerboard="0"
   inkscape:deskcolor="#d1d1d1"
   inkscape:export-bgcolor="#00000000"
   inkscape:zoom="0.9609375"
   inkscape:cx="248.19512"
   inkscape:cy="256"
   inkscape:window-width="1128"
   inkscape:window-height="730"
   inkscape:window-x="-6"
   inkscape:window-y="-6"
   inkscape:window-maximized="1"
   inkscape:current-layer="Layer_1" />&#10;<g
   id="g14">&#10;	<g
   id="g1"
   style="fill:#ffffff">&#10;		<rect
   x="138.129"
   y="38.248"
   width="17.084"
   height="68.104"
   id="rect1"
   style="fill:#ffffff" />&#10;	</g>&#10;	<g
   id="g2"
   style="fill:#ffffff">&#10;		<rect
   x="-24.174"
   y="199.816"
   width="68.104"
   height="17.085"
   id="rect2"
   style="fill:#ffffff" />&#10;	</g>&#10;	<g
   id="g3"
   style="fill:#ffffff">&#10;		&#10;			<rect
   x="15.745"
   y="103.575"
   transform="matrix(-0.7071 -0.7071 0.7071 -0.7071 5.7423 226.6105)"
   width="68.118"
   height="17.083"
   id="rect3"
   style="fill:#ffffff" />&#10;	</g>&#10;	<g
   id="g4"
   style="fill:#ffffff">&#10;		&#10;			<rect
   x="233.649"
   y="78.099"
   transform="matrix(-0.7071 -0.7071 0.7071 -0.7071 334.1517 362.6992)"
   width="17.083"
   height="68.095"
   id="rect4"
   style="fill:#ffffff" />&#10;	</g>&#10;	<g
   id="g5"
   style="fill:#ffffff">&#10;		<path
   d="M398.768,258.555c-12.339-57.595-63.49-100.799-124.765-100.799c-18.661,0-36.369,4.013-52.337,11.22    c-14.231-27.354-42.761-46.073-75.729-46.073c-47.174,0-85.422,38.239-85.422,85.414c0,21.013,7.675,40.166,20.271,55.033    c-12.196,15.717-19.537,35.396-19.537,56.834c0,51.11,41.31,92.563,92.363,92.814v0.022h10.144v-17.083H157.6l-3.904-0.025    c-41.552-0.201-75.362-34.178-75.362-75.729c0-41.77,33.977-75.755,75.746-75.755c1.284,0,2.552,0.1,3.82,0.191l1.269,0.083    l11.228,0.727l5.097-10.036c19.003-37.348,56.751-60.555,98.51-60.555c51.781,0,97.229,36.713,108.056,87.291l2.721,12.672    l12.929,0.802c31.676,1.969,56.484,28.354,56.484,60.055c0,33.126-26.854,60.096-59.938,60.279    c-0.36-0.025-0.676-0.041-1.001-0.041l-17.485,0.041h-15.542v17.083h32.628v-0.049c0.357,0.008,0.699,0.049,1.059,0.049    c42.721,0,77.364-34.628,77.364-77.362C471.276,294.573,439.209,261.072,398.768,258.555z M160.269,227.654    c-2.061-0.133-4.104-0.309-6.189-0.309c-23.625,0-45.114,8.901-61.506,23.433c-9.327-11.679-14.975-26.394-14.975-42.46    c0-37.673,30.657-68.33,68.338-68.33c26.411,0,49.201,15.149,60.58,37.114C186.88,189.397,170.83,206.899,160.269,227.654z"
   id="path4"
   style="fill:#ffffff" />&#10;	</g>&#10;	<g
   id="g6"
   style="fill:#ffffff">&#10;		<path
   d="M193.562,344.775c-7.075,0-12.813,5.738-12.813,12.814c0,7.073,5.739,12.812,12.813,12.812s12.812-5.739,12.812-12.812    C206.375,350.516,200.636,344.775,193.562,344.775z"
   id="path5"
   style="fill:#ffffff" />&#10;	</g>&#10;	<g
   id="g7"
   style="fill:#ffffff">&#10;		<path
   d="M227.73,396.03c-7.075,0-12.813,5.738-12.813,12.812c0,7.076,5.739,12.815,12.813,12.815    c7.074,0,12.812-5.739,12.812-12.815C240.544,401.77,234.807,396.03,227.73,396.03z"
   id="path6"
   style="fill:#ffffff" />&#10;	</g>&#10;	<g
   id="g8"
   style="fill:#ffffff">&#10;		<path
   d="M296.068,396.03c-7.075,0-12.813,5.738-12.813,12.812c0,7.076,5.738,12.815,12.813,12.815    c7.074,0,12.813-5.739,12.813-12.815C308.883,401.77,303.143,396.03,296.068,396.03z"
   id="path7"
   style="fill:#ffffff" />&#10;	</g>&#10;	<g
   id="g9"
   style="fill:#ffffff">&#10;		<path
   d="M261.898,344.775c-7.072,0-12.812,5.738-12.812,12.814c0,7.073,5.739,12.812,12.812,12.812    c7.074,0,12.813-5.739,12.813-12.812C274.713,350.516,268.973,344.775,261.898,344.775z"
   id="path8"
   style="fill:#ffffff" />&#10;	</g>&#10;	<g
   id="g10"
   style="fill:#ffffff">&#10;		<path
   d="M330.237,344.775c-7.073,0-12.812,5.738-12.812,12.814c0,7.073,5.739,12.812,12.812,12.812s12.812-5.739,12.812-12.812    C343.05,350.516,337.312,344.775,330.237,344.775z"
   id="path9"
   style="fill:#ffffff" />&#10;	</g>&#10;	<g
   id="g11"
   style="fill:#ffffff">&#10;		<path
   d="M193.562,447.467c-7.075,0-12.813,5.739-12.813,12.812c0,7.076,5.739,12.814,12.813,12.814s12.812-5.738,12.812-12.814    C206.375,453.206,200.636,447.467,193.562,447.467z"
   id="path10"
   style="fill:#ffffff" />&#10;	</g>&#10;	<g
   id="g12"
   style="fill:#ffffff">&#10;		<path
   d="M261.898,447.467c-7.072,0-12.812,5.739-12.812,12.812c0,7.076,5.739,12.814,12.812,12.814    c7.074,0,12.813-5.738,12.813-12.814C274.713,453.206,268.973,447.467,261.898,447.467z"
   id="path11"
   style="fill:#ffffff" />&#10;	</g>&#10;	<g
   id="g13"
   style="fill:#ffffff">&#10;		<path
   d="M330.237,447.467c-7.073,0-12.812,5.739-12.812,12.812c0,7.076,5.739,12.814,12.812,12.814s12.812-5.738,12.812-12.814    C343.05,453.206,337.312,447.467,330.237,447.467z"
   id="path12"
   style="fill:#ffffff" />&#10;	</g>&#10;</g>&#10;</svg>
