<?xml version="1.0" encoding="UTF-8" standalone="no"?>
<!-- Generator: Adobe Illustrator 16.0.0, SVG Export Plug-In . SVG Version: 6.00 Build 0)  -->

<svg
   version="1.1"
   id="Layer_1"
   x="0px"
   y="0px"
   width="444.197px"
   height="512px"
   viewBox="1.453 0 444.197 512"
   enable-background="new 1.453 0 444.197 512"
   xml:space="preserve"
   sodipodi:docname="sun.svg"
   inkscape:version="1.3 (0e150ed6c4, 2023-07-21)"
   inkscape:export-filename="1.png"
   inkscape:export-xdpi="96"
   inkscape:export-ydpi="96"
   xmlns:inkscape="http://www.inkscape.org/namespaces/inkscape"
   xmlns:sodipodi="http://sodipodi.sourceforge.net/DTD/sodipodi-0.dtd"
   xmlns="http://www.w3.org/2000/svg"
   xmlns:svg="http://www.w3.org/2000/svg"><defs
   id="defs8" /><sodipodi:namedview
   id="namedview8"
   pagecolor="#ffffff"
   bordercolor="#000000"
   borderopacity="0.25"
   inkscape:showpageshadow="2"
   inkscape:pageopacity="0.0"
   inkscape:pagecheckerboard="0"
   inkscape:deskcolor="#d1d1d1"
   inkscape:export-bgcolor="#00000000"
   inkscape:zoom="0.9609375"
   inkscape:cx="222.17886"
   inkscape:cy="256"
   inkscape:window-width="1128"
   inkscape:window-height="730"
   inkscape:window-x="-6"
   inkscape:window-y="-6"
   inkscape:window-maximized="1"
   inkscape:current-layer="Layer_1" />&#10;<g
   id="g8">&#10;	<path
   d="M223.551,144.567c-61.331,0-111.049,49.71-111.049,111.041c0,61.339,49.719,111.065,111.049,111.065   c61.33,0,111.049-49.726,111.049-111.065C334.6,194.277,284.882,144.567,223.551,144.567z M223.551,349.59   c-51.812,0-93.965-42.16-93.965-93.981c0-51.805,42.152-93.957,93.965-93.957c51.812,0,93.965,42.152,93.965,93.957   C317.517,307.43,275.363,349.59,223.551,349.59z"
   id="path1"
   style="fill:#ffffff"
   inkscape:export-filename="1.png"
   inkscape:export-xdpi="96"
   inkscape:export-ydpi="96" />&#10;	<rect
   x="214.951"
   y="33.568"
   width="17.084"
   height="85.422"
   id="rect1"
   style="fill:#ffffff" />&#10;	<rect
   x="214.951"
   y="392.343"
   width="17.084"
   height="85.422"
   id="rect2"
   style="fill:#ffffff" />&#10;	<rect
   x="1.453"
   y="247.125"
   width="85.364"
   height="17.084"
   id="rect3"
   style="fill:#ffffff" />&#10;	<rect
   x="360.168"
   y="247.125"
   width="85.482"
   height="17.084"
   id="rect4"
   style="fill:#ffffff" />&#10;	&#10;		<rect
   x="340.532"
   y="85.547"
   transform="matrix(-0.7071 -0.7071 0.7071 -0.7071 503.9698 468.7683)"
   width="17.081"
   height="88.917"
   id="rect5"
   style="fill:#ffffff" />&#10;	<rect
   x="89.322"
   y="336.788"
   transform="matrix(0.707 0.7072 -0.7072 0.707 298.296 42.4937)"
   width="17.084"
   height="88.923"
   id="rect6"
   style="fill:#ffffff" />&#10;	&#10;		<rect
   x="53.425"
   y="121.514"
   transform="matrix(-0.7071 -0.7071 0.7071 -0.7071 75.1333 291.2311)"
   width="88.916"
   height="17.082"
   id="rect7"
   style="fill:#ffffff" />&#10;	<rect
   x="304.608"
   y="372.74"
   transform="matrix(0.7072 0.707 -0.707 0.7072 371.7704 -135.158)"
   width="88.924"
   height="17.082"
   id="rect8"
   style="fill:#ffffff" />&#10;</g>&#10;</svg>
